<svg viewBox="0 0 512 512" fill="#D4AF37" xmlns="http://www.w3.org/2000/svg">
    <path d="M496 112c-23.7-23.7-65.7-32.5-98.8-21.7c-9.6-32.9-21.3-70.5-47.5-96.8C349.5-6.7 348.5-6.7 348.3-6.8C339.4-7.5 316.5-6.6 295 14.8c-28.8 28.8-38.3 75.3-26.6 113.6c-4.8 3.5-9.6 7-14.4 10.6c-27.4-15.6-59.5-22.1-88.7-18c-32 4.4-60.6 22-79.5 48.7c-21.4 30.1-23.8 69-6.3 100.2C69 276.1 57.3 283.4 46.5 291.6c-17.1-12.7-39.6-13.3-56.7-1.1c-19 13.5-25.1 40-13.8 60.6c11.3 20.6 35.7 26.6 54.7 13.1c8.1-5.7 13.8-13.8 17.5-22.3c27.5-21 57.3-40.4 88.6-58.2c-.3 2.1-.5 4.3-.5 6.5c0 30.9 14.3 60.1 38.3 80.6c13.7 11.7 29.8 20 47.1 24.3c35.6 8.7 75-.5 101.4-26.9c16.3-16.3 27-36.8 31.9-58.4c4.6-20.2 3.1-41.6-4.5-61.1c5.1-3.1 10.1-6.1 14.9-9.1c11.6 30 22.8 63.8 45 86.1c.3.3 1.3.4 1.5.5c8.9.7 31.8-.1 53.3-21.6c28.8-28.8 38.3-75.3 26.6-113.6c4.8-3.5 9.6-7 14.4-10.6c40.5 40.5 112 40.5 152.5 0c40.5-40.5 40.5-112 0-152.5zM294.6 280.9c-24.3 24.3-59 29.8-87.1 13.3c3.8-7.7 8.3-15.3 13.6-22.6c13.4-18.4 30.6-34 50.1-46.7c8.1-5.3 16.5-10 25.1-14c18.5 23.3 21 47.9 21 50.8c.2 6.8-6.1 12.8-13 12.8c-3.1 0-6.2-1.1-8.5-3.3c-4.7-4.7-12.3-4.7-17 0s-4.7 12.3 0 17c9.3 9.3 21.6 14 33.9 14c12.3 0 24.5-4.7 33.9-14c14-14 20-33.1 17.6-51.5c-15.5 11.2-31.5 22.2-47.5 32.7c-9.1 5.9-18.4 11.7-28 17.5zm55.3-71.2c-5.2 6.3-11.2 11.8-17.7 16.5c23.6-15.5 46.5-31.4 68.6-48c-6.1 17-15 32.6-26.4 46.1c-6.6 7.8-17.8 11.1-27.6 8.3s-17.4-11-18.6-21.1c-1.3-10.8 4.7-21.6 14.5-26.3c10-4.8 21.6-3.8 31 2.2c16 10.2 30.4 22.8 42.6 37.4c-11.9 14.9-25.9 28.1-41.5 39.2c-7.7 5.5-15.8 10.4-24.3 14.5zm-59.5-62c-24.3-24.3-29.8-59-13.3-87.1c7.7 3.8 15.3 8.3 22.6 13.6c18.4 13.4 34 30.6 46.7 50.1c5.3 8.1 10 16.5 14 25.1c-23.3 18.5-47.9 21-50.8 21c-6.8 .2-12.8-6.1-12.8-13c0-3.1 1.1-6.2 3.3-8.5c4.7-4.7 4.7-12.3 0-17s-12.3-4.7-17 0c-9.3 9.3-14 21.6-14 33.9c0 12.3 4.7 24.5 14 33.9c14 14 33.1 20 51.5 17.6c-11.2-15.5-22.2-31.5-32.7-47.5c-5.9-9.1-11.7-18.4-17.5-28zM302.3 27.5C313 16.8 322.6 16.5 323.8 16.5c17.5 0 46.2 24.5 53 52.8c-1.8 .8-3.7 1.8-5.6 2.8c-5.1 2.6-10.2 5.5-15.3 8.5C345.5 57.3 325.2 37 302.3 27.5zm19.8 126.9c-8.9-19.4-20.9-37.4-35.4-53.1c9.4-4 19.3-7.2 29.5-9.6c14.2-3.3 29.1-5 44.1-5c-2.8 5-5.6 9.9-8.5 14.8c-10.4 17.6-21.4 34.8-32.8 51.8c.8 .4 1.7 .7 3.1 1.1zm-8.8 30.4c-9.6-3.8-19.6-6.6-29.8-8.5c15.8-14.7 33.8-26.7 53.4-35.4c-3.1 5-6.3 9.9-9.6 14.8c-8.6 12.8-17.6 25.3-26.8 37.6c4.6 1.3 9.6 2.1 15.6 2.4l-2.8-10.9zm27.1-103c15 11.2 27.9 24.7 38 40.2c-5.9 8.2-11.9 16.2-18 24.1c-6-14.9-13.6-28.9-22.7-42.3c2.4-7.2 4-14.6 4.6-22zm-73.8 221c-19.4-8.9-37.4-20.9-53.1-35.4c-4 9.4-7.2 19.3-9.6 29.5c-3.3 14.2-5 29.1-5 44.1c5-2.8 9.9-5.6 14.8-8.5c17.6-10.4 34.8-21.4 51.8-32.8c.4 .8 .7 1.7 1.1 3.1zm30.4-8.8c-3.8-9.6-6.6-19.6-8.5-29.8c-14.7 15.8-26.7 33.8-35.4 53.4c5-3.1 9.9-6.3 14.8-9.6c12.8-8.6 25.3-17.6 37.6-26.8c1.3 4.6 2.1 9.6 2.4 15.6l-10.9-2.8z" />
</svg>
