<svg viewBox="0 0 512 512" fill="#D4AF37" xmlns="http://www.w3.org/2000/svg">
    <path d="M272 96c-78.6 0-145.1 51.5-167.7 122.5c33.6-17 71.5-26.5 111.7-26.5l40 0 0-48-24 0c-13.3 0-24-10.7-24-24s10.7-24 24-24l24 0 0-32c0-17.7 14.3-32 32-32l16 0c17.7 0 32 14.3 32 32l0 32 24 0c13.3 0 24 10.7 24 24s-10.7 24-24 24l-24 0 0 48 40 0c40.2 0 78.1 9.5 111.7 26.5C417.1 147.5 350.6 96 272 96zM151.4 266.3c15.4-8.7 32.1-16 49.3-21c-32.9 5.3-64.8 17.1-94.8 34.6c2.4-4.8 5-9.4 7.7-14l37.8 .4zM45.5 289C33 296.8 21 305.6 9.8 315.3c-.6 .5-1.1 1-1.7 1.5C36 314 65.5 315.6 97.4 321.7C78.4 309.8 61.1 298.5 45.5 289zM360.6 245.3c17.2 5 33.9 12.3 49.3 21l37.8-.4c2.8 4.6 5.3 9.2 7.7 14c-30-17.5-61.9-29.3-94.8-34.6zM466.5 289c-15.6 9.5-32.9 20.8-51.9 32.7c31.9-6.2 61.4-7.7 89.3-4.9c-.6-.5-1.1-1-1.7-1.5c-11.2-9.7-23.2-18.5-35.7-26.3zM256 512c-15-56-38.3-108.7-68-155.8c-32 13-68.5 21-105.8 24c9.1 11.1 19 21.6 29.5 31.5c23.6 22.3 54.4 34.9 83.3 51l-18 29.3c-11.3 18.5-6.7 42.6 10.8 55.4s41.2 9.2 54.1-10.8l14-24.8zM324 356.2c-29.7 47.1-53 99.8-68 155.8l14 24.8c12.9 19.9 36.6 23.6 54.1 10.8s22.1-36.9 10.8-55.4l-18-29.3c28.9-16.1 59.7-28.7 83.3-51c10.5-9.9 20.4-20.4 29.5-31.5c-37.3-3-73.8-11-105.8-24z" />
</svg>
