<svg viewBox="0 0 512 512" fill="#D4AF37" xmlns="http://www.w3.org/2000/svg">
    <path d="M272 96c-78.6 0-145.1 51.5-167.7 122.5c33.6-17 71.5-26.5 111.7-26.5l40 0 0-48-24 0c-13.3 0-24-10.7-24-24s10.7-24 24-24l24 0 0-32c0-17.7 14.3-32 32-32l16 0c17.7 0 32 14.3 32 32l0 32 24 0c13.3 0 24 10.7 24 24s-10.7 24-24 24l-24 0 0 48 40 0c40.2 0 78.1 9.5 111.7 26.5C417.1 147.5 350.6 96 272 96zM461.6 256.6c-4.4-1.2-8.5-2.6-12.7-3.9l0 35.3c0 98.7-65.7 186-160 212.1L285 501l49-8c20.3-3.3 34.1-22.5 30.8-42.8s-22.5-34.1-42.8-30.8l-18 2.9L304 353l67.2 42 27.2-43.5c10.5-16.8 5-38.3-12.4-48L326.6 266c28.5-4.5 59-5.6 92.5-1.9L461.6 256.6zM288 353l0 69.4-18-2.9c-20.3-3.3-39.5 10.5-42.8 30.8s10.5 39.5 30.8 42.8l49 8-3.9-.9c-94.3-26.1-160-113.4-160-212.1l0-35.3c-4.2 1.3-8.3 2.7-12.7 3.9l42.5 7.6c33.4-3.7 63.9-2.6 92.5 1.9l-59.5 37.5c-17.4 9.7-22.9 31.2-12.4 48l27.2 43.5L288 353z" />
</svg>
